<svg xmlns="http://www.w3.org/2000/svg" width="210" height="216" viewBox="0 0 210 216">
  <defs>
    <style>
      .cls-1 {
        fill: #fff;
        fill-rule: evenodd;
      }
    </style>
  </defs>
  <path class="cls-1" d="M155.62,61.865A83.2,83.2,0,0,0,35.834,160.2c0.28,0.071.556,0.153,0.831,0.243A82.472,82.472,0,0,1,156.32,63.089C156.073,62.689,155.838,62.283,155.62,61.865ZM192.532,162.52a82.461,82.461,0,0,1-113.25,46.291c0.133,0.317.257,0.637,0.375,0.96a83.151,83.151,0,0,0,113.522-46.944C192.965,162.721,192.754,162.613,192.532,162.52Zm-111.7,60.09c-0.1.564-.222,1.122-0.379,1.68-0.872,3.2-2.681,6.211-5.583,7.748a9.3,9.3,0,0,1-10.709-1.794,3.9,3.9,0,0,0,2.7.958,3.4,3.4,0,0,0,3.153-2.959,4.535,4.535,0,0,0-1.566-3.417c-2.852-2.8-7.213-3.238-11.209-3.288s-8.25.079-11.667-1.987a10.124,10.124,0,0,1-3.846-13.174,15.937,15.937,0,0,1-3.781,2.831,2.175,2.175,0,0,1-2.173.236c1.837-.908,2.9-2.945,3.489-4.946a19.368,19.368,0,0,0-.107-11.08c0.357,0.994,4.582,11.744,20.681,19.371-7.92-5.818-14.214-14.057-20-22,1.873,2.43,4.47,4.85,7.6,5.087,3.567,0.271,7.141-.451,10.723-0.515s7.428,0.679,9.887,3.273a11.45,11.45,0,0,0-12.925,5.712,14.785,14.785,0,0,1,12.56-3.074,16.925,16.925,0,0,1,10.837,7.97A19.9,19.9,0,0,1,80.831,222.61ZM206.085,82.993l0.172,0.146c-2.481,2.926-3.347,7.5-4.041,11.276a56.222,56.222,0,0,0-18.762-25.873L183.4,68.6c-0.068-.074-0.145-0.147-0.207-0.22l-0.067.062a121.456,121.456,0,0,1,17.3,26.98c-0.176-.309-0.358-0.618-0.54-0.919-2.79-4.547-6.541-8.3-10.382-12.049a21.552,21.552,0,0,0-5.428-4.123,9.364,9.364,0,0,0-6.647-.787,6.079,6.079,0,0,0-4.336,4.563l-0.239-.043a10.671,10.671,0,0,1,3.906-12.794V69.242c-5.609.937-11.864,0.434-16.19-3.249-3.672-3.118-5.384-8.094-5.457-12.9a27.09,27.09,0,0,1,.308-4.383,50.623,50.623,0,0,1,2.636-9.675c1.643-4.531,3.552-8.986,4.6-13.683,0.624-2.8.8-6.11-1.089-8.211l0.173-.146a22.93,22.93,0,0,1,15.822,16.476,51.478,51.478,0,0,1,.936,9.693,32.628,32.628,0,0,0,1.462,9.609,12.606,12.606,0,0,0,5.875,7.2,22.3,22.3,0,0,1,.328-20.19,10.712,10.712,0,0,0,2.095,7.255,33.222,33.222,0,0,0,6.667,6.379c2.407,1.942,4.809,4.006,6.307,6.712a9.546,9.546,0,0,1,.947,7.542A10.633,10.633,0,0,1,216.12,68.8a16.8,16.8,0,0,0-12.574,6.481c-2.9,3.782-3.1,10.449-2.1,15.112a17.418,17.418,0,0,1,.919-5.459C202.837,83.581,204.663,83.17,206.085,82.993Zm-4.693-33.74a2.338,2.338,0,1,1-2.289,2.379A2.334,2.334,0,0,1,201.392,49.252Zm-2.969-3.933a0.71,0.71,0,0,1,.72.692A0.7,0.7,0,1,1,198.423,45.32ZM196,47.566a1.157,1.157,0,1,1-1.138,1.183A1.155,1.155,0,0,1,196,47.566Zm-34.73,28.879a2.12,2.12,0,1,1-2.076,2.165A2.121,2.121,0,0,1,161.267,76.444Zm6.22,0.51a1.8,1.8,0,1,1-1.77,1.839A1.8,1.8,0,0,1,167.487,76.955Zm-1.317-4.9a1.34,1.34,0,1,1-1.317,1.362A1.341,1.341,0,0,1,166.17,72.054ZM214.545,84.71a23.315,23.315,0,0,0-5.8,23.024q-1.614-4.947-3.233-9.9c-0.614-1.882-1.23-3.947-.526-5.8,0.7-1.873,2.581-3.057,3.558-4.806,1.286-2.292.829-5.194,1.792-7.642,1.449-3.72,6.016-5.533,9.939-4.815s7.214,3.45,9.711,6.564l-0.059.1a4.486,4.486,0,0,0-6.544,3.106c-0.3,1.581.266,3.178,0.676,4.737s0.655,3.32-.195,4.687c-1.177,1.9-3.766,2.123-5.9,2.768a12.136,12.136,0,0,0-7.694,7.146c-0.058.144-.109,0.294-0.154,0.444a32.3,32.3,0,0,1,4.653-19.4Zm-9.487,26.776a25.28,25.28,0,0,1,.124,6.86,11.316,11.316,0,0,0-8.708-8.6c-1.759-.323-3.57-0.213-5.333-0.479a6.215,6.215,0,0,1-4.53-2.525c-0.718-1.178-.837-2.733-1.845-3.679a3.569,3.569,0,0,0-2.8-.8,9.485,9.485,0,0,0-2.567.744,8.731,8.731,0,0,1,15.57-3.555,19.045,19.045,0,0,0,2.4,3.259,22.943,22.943,0,0,0,3.414,1.926A10.03,10.03,0,0,1,205.058,111.486ZM192.986,157.6a5.811,5.811,0,0,1,10.924-.9h0.013c0.1-2.153-1.275-4.19-2.945-5.609-1.775-1.513-3.912-2.564-5.693-4.077-1.732-1.466-3.165-3.59-2.964-5.834a14.22,14.22,0,0,0,5.728,1.036c2.168,0.115,4.508.388,6.1,1.863l0.081-.014c-0.543-2.82-3.473-4.473-6.205-5.357s-5.765-1.5-7.693-3.617-2.252-5.223-2.029-8.064,0.9-5.671.642-8.516-1.756-5.823-4.455-6.741l0-.482a24.9,24.9,0,0,1,22.2,14.181c2.275,4.964,2.818,10.553,2.68,16.012a69.443,69.443,0,0,1-3.988,21.489l0.021,0.006a42.409,42.409,0,0,1-5.66,11.953,8.9,8.9,0,0,1-.887-5.147c0.148-1.822.554-3.615,0.627-5.436a7.813,7.813,0,0,0-1.383-5.171,4.1,4.1,0,0,0-4.872-1.317Zm33.882-11.432a2.582,2.582,0,0,1-.77,2.57L226,148.6c-0.948-1.785-3.331-2.311-5.315-1.915a11.259,11.259,0,0,0-6.947,5.127,27.047,27.047,0,0,0-3.5,6.923,85.336,85.336,0,0,0,.325-44.354,32.88,32.88,0,0,1,5.488,10.12l0.163-.056a22.545,22.545,0,0,1,8.641-25.564l0.082,0.034c-1.866,4.4-.9,9.45-0.067,14.174,0.844,4.785,1.425,10.076-1.157,14.2-2.015,3.218-5.8,5.405-6.662,9.1l0.451-.057a9,9,0,0,1,7.624-4.073l0,0.048a28.2,28.2,0,0,0-6.478,9.411l0.155,0.063A5.821,5.821,0,0,1,226.868,146.173ZM92.2,219.794a2.52,2.52,0,1,1-2.516,2.516A2.521,2.521,0,0,1,92.2,219.794Zm-4.3-5.847a1.269,1.269,0,1,1-1.266,1.265A1.269,1.269,0,0,1,87.894,213.947Zm-2.166,4.174a2.055,2.055,0,1,1-2.059,2.059A2.053,2.053,0,0,1,85.728,218.121Zm-49.782-4.21a1.43,1.43,0,1,1-1.43,1.43A1.434,1.434,0,0,1,35.945,213.911Zm-2.8-4.26a1.04,1.04,0,1,1-1.037,1.044A1.039,1.039,0,0,1,33.143,209.651Zm-1.766,3.138a1.591,1.591,0,1,1-1.587,1.587A1.594,1.594,0,0,1,31.377,212.789Zm-0.165-22.808a19.886,19.886,0,0,1-1.6,10.428c-1.587,3.2-4.654,5.79-8.2,6.119V206.52c1.651-.657,2.231-2.8,1.945-4.56s-1.187-3.4-1.544-5.16a8.752,8.752,0,0,1,1.308-6.562c1.294-1.922,3.324-3.274,4.575-5.232a8.177,8.177,0,0,0,1.193-5.211A35.33,35.33,0,0,1,31.213,189.981Zm-6.369-34.052c0.415,2.194,2.481,3.817,4.611,4.6,2.259,0.822,4.711.986,6.984,1.758a13.761,13.761,0,0,1,6.727,5.032c0.843,1.2,1.494,2.53,2.359,3.717a6.4,6.4,0,0,0,3.4,2.58c-5.233,2.088-11.524.744-15.97-2.751-4.575-3.6-7.32-9.171-8.292-14.9Zm21.327,31.08a0.976,0.976,0,1,1-.979.972A0.973,0.973,0,0,1,46.171,187.009Zm1.494-7.277a1.494,1.494,0,1,1-1.494,1.494A1.5,1.5,0,0,1,47.665,179.732Zm-6.541-1.83a3.324,3.324,0,1,1-3.324,3.324A3.323,3.323,0,0,1,41.124,177.9ZM81.83,224.835a97.155,97.155,0,0,0,61.588,1.513,95.007,95.007,0,0,0,49.534-36.013,92.242,92.242,0,0,0,13.589-27.876A96.063,96.063,0,0,0,188.417,74.1,93.832,93.832,0,0,1,205.1,100.753a94.873,94.873,0,0,1-20.657,102.976,99.217,99.217,0,0,1-12.122,10.283,93.406,93.406,0,0,1-43.972,17.054,95.169,95.169,0,0,1-15.82.58A93.513,93.513,0,0,1,81.83,224.835Zm72.732-175.92a96.7,96.7,0,0,0-67.184-2.791,95.033,95.033,0,0,0-52.168,41.8,92.872,92.872,0,0,0-11.878,31.8,97.794,97.794,0,0,0-1.472,16.994c0,2.848.156,5.7,0.422,8.531s0.635,5.664,1.136,8.471A93.241,93.241,0,0,0,35.49,185.581c5.792,9.876,12.146,17.876,21.08,25.11-4.615-3.434-7.532-6.588-11.437-10.836A91.207,91.207,0,0,1,34.594,186.13a94.318,94.318,0,0,1-12.8-32.1,92.62,92.62,0,0,1-1.791-17.3,99.707,99.707,0,0,1,1.4-17.344A94.739,94.739,0,0,1,33.37,86.832,96.117,96.117,0,0,1,86.878,44.56,97.356,97.356,0,0,1,121.2,40.444,93.95,93.95,0,0,1,154.562,48.915ZM116,163.72c-3.059,4.429-5.749,6.907-11.549,6.907-5.432,0-9.546-2.478-11.6-11.705l-2.373-10.757c-2.057-9.175-3.639-15.344-12.182-15.344H68.012v24.835c0,7.857,1.424,8.964,8.754,9.281V169.1c-3.322-.211-8.754-0.316-13.711-0.316-5.59,0-10.811.1-13.816,0.316v-2.161c7.33-.317,8.754-1.424,8.754-9.281V104.084c0-7.856-1.424-8.964-8.754-9.28V92.642c3.006,0.211,8.438.316,13.184,0.316,6.8,0,13.711-.211,16.295-0.211,17.4,0,26.051,8.226,26.051,18.772,0,7.487-4.693,18.244-20.989,20.775l1.318,0.211c9.6,1.582,13.078,5.272,15.135,14.236l2.689,11.02c1.319,6.276,2.532,8.859,5.537,8.859,2.637,0,3.9-1.581,5.907-4.113ZM68.012,104.084v26.575h7.277c15.293,0,18.668-8.014,18.668-17.928,0-11.336-4.852-17.927-17.93-17.927C69.436,94.8,68.012,96.649,68.012,104.084ZM175.281,169.1c-7.329-.316-17.508-0.316-24.732-0.316-6.487,0-20.725,0-31.324.316v-2.161c7.329-.317,8.754-1.424,8.754-9.281V104.084c0-7.856-1.425-8.964-8.754-9.28V92.642c10.6,0.316,24.837.316,31.324,0.316,6.592,0,15.873,0,22.57-.316-0.527,5.062-.738,10.282-0.738,12.76a58.016,58.016,0,0,0,.317,6.7h-2.479c-1.424-12.761-3.059-16.979-14.5-16.979h-8.965c-7.33,0-8.754,1.108-8.754,8.964v25.468h7.172c9.386,0,9.176-9.069,10.02-14.237h2.478c-0.316,4.588-.369,7.7-0.369,10.177,0,2,.053,3.585.053,5.167,0,3.533.1,7.118,0.633,15.344h-2.479c-0.844-6.907-.95-14.289-10.336-14.289H138v25.942c0,7.857,1.424,8.964,8.754,8.964h7.91c13.5,0,16.19-4.851,17.719-19.14h2.479c-0.212,1.951-.317,4.8-0.317,7.8C174.543,157.973,174.754,163.614,175.281,169.1Z" transform="translate(-20 -17)"/>
</svg>
